<svg width="105.37" height="70.123" viewBox="0 0 105.37 70.123" xmlns="http://www.w3.org/2000/svg"><g id="svgGroup" stroke-linecap="round" fill-rule="evenodd" font-size="9pt" stroke="#000" stroke-width="0.25mm" fill="#ffffff" style="stroke:#000;stroke-width:0.25mm;fill:white"><path d="M 32.829 65.287 Q 32.736 66.496 32.364 67.659 A 25.365 25.365 0 0 1 31.857 69.088 A 31.69 31.69 0 0 1 31.434 70.123 Q 23.317 69.411 17.08 68.59 A 194.829 194.829 0 0 1 13.439 68.077 Q 6.045 66.961 0 65.287 Q 0.093 64.264 0.279 63.241 Q 0.465 62.218 0.837 61.288 A 151.73 151.73 0 0 0 8.877 54.736 Q 16.451 48.088 20.551 42.273 A 41.694 41.694 0 0 0 20.972 41.665 Q 26.97 32.83 26.97 22.6 A 17.331 17.331 0 0 0 26.679 19.326 Q 26.156 16.608 24.692 14.695 Q 22.413 11.719 18.507 11.719 A 7.44 7.44 0 0 0 13.57 13.608 A 11.922 11.922 0 0 0 11.718 15.625 A 18.404 18.404 0 0 0 9.652 19.29 Q 8.344 22.327 7.626 26.413 A 7.615 7.615 0 0 1 6.58 26.337 Q 5.995 26.256 5.348 26.088 A 17.397 17.397 0 0 1 3.357 25.437 A 19.915 19.915 0 0 1 2.79 25.204 Q 4.079 18.761 6.855 14.55 A 18.927 18.927 0 0 1 8.649 12.231 A 14.771 14.771 0 0 1 12.461 9.166 A 12.555 12.555 0 0 1 18.6 7.627 A 13.872 13.872 0 0 1 23.287 8.389 A 11.992 11.992 0 0 1 28.365 11.905 A 14.662 14.662 0 0 1 31.551 18.296 Q 32.068 20.502 32.084 23.084 A 26.669 26.669 0 0 1 32.085 23.251 Q 32.085 31.325 26.864 40.115 A 54.257 54.257 0 0 1 25.296 42.595 Q 18.507 52.732 5.487 62.776 Q 12.183 64.078 18.414 64.636 A 148.971 148.971 0 0 0 24.24 65.035 Q 28.226 65.235 32.829 65.287 Z M 104.541 53.332 A 28.258 28.258 0 0 0 105.369 46.315 Q 105.369 41.944 102.905 38.131 Q 100.44 34.318 96.441 32.272 A 14.635 14.635 0 0 0 98.881 30.288 A 15.687 15.687 0 0 0 102.068 25.53 Q 103.974 21.205 103.974 15.16 A 19.347 19.347 0 0 0 103.953 14.256 A 14.681 14.681 0 0 0 99.743 4.326 A 14.456 14.456 0 0 0 95.833 1.447 A 14.325 14.325 0 0 0 89.373 0.001 A 20.484 20.484 0 0 0 87.205 0.113 A 14.52 14.52 0 0 0 77.422 5.07 Q 74.524 8.396 73.527 13.304 A 28.033 28.033 0 0 0 73.005 18.88 Q 73.005 23.623 75.191 27.576 A 17.966 17.966 0 0 0 75.759 28.534 A 14.779 14.779 0 0 0 81.003 33.574 A 17.641 17.641 0 0 0 78.285 35.729 A 19.181 19.181 0 0 0 74.447 41.061 Q 72.075 45.85 72.075 51.43 A 21.266 21.266 0 0 0 72.115 52.744 A 16.188 16.188 0 0 0 76.446 63.102 A 14.696 14.696 0 0 0 80.888 66.414 A 14.77 14.77 0 0 0 87.327 67.798 A 16.583 16.583 0 0 0 94.666 66.191 A 17.102 17.102 0 0 0 100.254 61.753 A 20.837 20.837 0 0 0 104.541 53.332 Z M 49.662 21.205 L 52.917 21.484 Q 56.73 26.785 59.753 32.412 A 107.304 107.304 0 0 1 62.052 36.965 Q 63.267 39.51 64.517 42.417 A 199.927 199.927 0 0 1 66.03 46.036 A 16.429 16.429 0 0 0 65.719 46.144 Q 65.365 46.27 64.876 46.457 A 73.304 73.304 0 0 0 64.403 46.641 Q 63.633 46.942 63.032 47.123 A 9.774 9.774 0 0 1 62.589 47.245 Q 59.799 40.828 57.056 35.667 Q 54.312 30.505 51.15 25.762 A 54.101 54.101 0 0 0 48.709 29.392 Q 47.671 31.069 46.634 32.976 A 90.155 90.155 0 0 0 45.942 34.272 A 132.671 132.671 0 0 0 43.974 38.202 Q 42.135 42.021 39.99 46.966 Q 39.153 46.873 38.316 46.594 A 7.708 7.708 0 0 1 37.456 46.245 Q 37.014 46.036 36.549 45.757 A 151.924 151.924 0 0 1 39.447 38.786 Q 41.1 35.084 42.78 31.947 A 80.781 80.781 0 0 1 47.725 23.85 A 70.376 70.376 0 0 1 49.662 21.205 Z M 87.885 63.706 A 10.345 10.345 0 0 0 95.78 60.142 A 14.968 14.968 0 0 0 96.72 59.01 Q 100.254 54.313 100.254 47.152 Q 100.254 41.851 97.232 38.41 A 9.942 9.942 0 0 0 90.262 35.01 A 13.756 13.756 0 0 0 89.187 34.969 Q 84.258 34.969 80.724 39.387 A 15.918 15.918 0 0 0 77.47 46.866 A 21.614 21.614 0 0 0 77.19 50.407 A 21.719 21.719 0 0 0 77.515 54.289 Q 78.159 57.825 80.073 60.172 A 9.364 9.364 0 0 0 86.942 63.673 A 12.958 12.958 0 0 0 87.885 63.706 Z M 88.629 4.093 A 8.725 8.725 0 0 0 81.964 7.081 A 12.505 12.505 0 0 0 81.096 8.139 Q 78.12 12.184 78.12 18.322 Q 78.12 23.995 80.91 27.483 A 9.037 9.037 0 0 0 87.503 30.928 A 12.537 12.537 0 0 0 88.536 30.97 A 4.332 4.332 0 0 0 88.755 30.964 Q 88.86 30.959 88.98 30.949 A 9.717 9.717 0 0 0 89.234 30.924 A 13.865 13.865 0 0 1 89.428 30.903 Q 89.67 30.88 89.807 30.878 A 1.72 1.72 0 0 1 89.838 30.877 A 9.023 9.023 0 0 0 96.07 27.106 A 12.228 12.228 0 0 0 96.394 26.646 A 13.966 13.966 0 0 0 98.387 21.91 Q 98.815 20.028 98.855 17.847 A 24.744 24.744 0 0 0 98.859 17.392 A 23.851 23.851 0 0 0 98.575 13.59 Q 97.985 9.938 96.162 7.581 A 8.748 8.748 0 0 0 89.733 4.141 A 12.435 12.435 0 0 0 88.629 4.093 Z" vector-effect="non-scaling-stroke"/></g></svg>